<svg width="391" height="96" viewBox="0 0 391 96" fill="none" xmlns="http://www.w3.org/2000/svg">
<g clip-path="url(#clip0_6347_2819)">
<g filter="url(#filter0_d_6347_2819)">
<path d="M386.8 81.88C381.43 76.29 374.03 72.86 366.34 72.1C361.21 71.48 356.01 72.39 351.2 74.2C346.39 76.04 342.03 78.92 337.07 80.37C329.65 82.54 321.57 82.09 314.29 79.6C288.32 71.21 282.25 34.95 298.54 15C310.54 -0.510045 334.96 -3.62005 350.67 7.97996C357.95 13.3 362.94 21.58 364.4 30.47C364.82 33.01 364.97 35.59 364.84 38.16C364.35 35.56 363.71 33.08 362.81 30.74C358.38 18.92 348.52 10.49 335.91 9.04996C325.58 7.80996 314.41 11.45 307.66 19.54C297.8 31.38 297.37 50.12 306.4 62.54C312.85 71.52 326.07 75.3 336.63 72.83C336.85 72.81 337.58 72.54 337.81 72.48C338.33 72.32 338.88 72.16 339.39 71.99C342.41 70.9 345.98 69.47 349.07 68.61C353.46 67.46 357.89 66.9 362.45 67.35C372.13 68.41 381.68 73.51 386.79 81.89L386.8 81.88Z" fill="#BE0D30"/>
</g>
<g filter="url(#filter1_d_6347_2819)">
<path d="M86.2197 41.58C86.2197 20.67 101.36 3.45996 123.79 3.45996C146.22 3.45996 161.25 20.34 161.25 41.58C161.25 62.82 146.11 79.59 123.79 79.59C101.47 79.59 86.2197 62.6 86.2197 41.58ZM123.79 72.15C140.78 72.15 153.3 59.29 153.3 41.58C153.3 23.87 140.78 10.9 123.79 10.9C106.8 10.9 94.1697 23.76 94.1697 41.58C94.1697 59.4 106.69 72.15 123.79 72.15Z" fill="#121E3D"/>
<path d="M78.27 38.75C78.27 20.02 63.46 3.46998 41.57 3.46998C41.42 3.46998 41.28 3.46998 41.14 3.46998C41 3.46998 40.85 3.46998 40.7 3.46998C18.8 3.45998 4 20.01 4 38.75C4 39.17 4 39.59 4.02 40C4.01 40.42 4 40.83 4 41.25C4 57.4 14.49 69.27 32.63 79.44C33.7 80.04 34.79 80.63 35.91 81.22L41.14 83.95L60.96 94.29V85.35L49.64 79.45L41.14 75.01L39.58 74.19C35.52 72.06 31.93 69.92 28.8 67.76C18.64 60.72 13.31 53.36 12.17 44.87C12.03 43.69 11.95 42.48 11.95 41.25C11.95 40.91 11.95 40.56 11.97 40.23V40.21C12.01 38.95 12.11 37.7 12.28 36.49C12.32 36.18 12.37 35.88 12.43 35.57C12.44 35.48 12.45 35.39 12.47 35.31C13.54 29.53 16.15 24.29 20.11 20.15C25.5 14.51 32.78 11.48 41.15 11.38C49.53 11.48 56.79 14.51 62.19 20.15C66.14 24.28 68.76 29.53 69.83 35.31C69.85 35.4 69.86 35.49 69.87 35.57C69.92 35.88 69.97 36.18 70.02 36.49C70.19 37.72 70.29 38.98 70.32 40.26C70.33 40.59 70.34 40.92 70.34 41.25C70.34 42.48 70.27 43.69 70.13 44.87C68.98 53.35 63.66 60.71 53.49 67.76C51.97 68.82 50.33 69.87 48.59 70.91H62.46C72.63 62.65 78.29 53.1 78.29 41.25C78.29 40.83 78.29 40.41 78.27 40C78.28 39.59 78.29 39.17 78.29 38.75H78.27Z" fill="#121E3D"/>
<path d="M86.2197 41.58C86.2197 20.67 101.36 3.45996 123.79 3.45996C146.22 3.45996 161.25 20.34 161.25 41.58C161.25 62.82 146.11 79.59 123.79 79.59C101.47 79.59 86.2197 62.6 86.2197 41.58ZM123.79 72.15C140.78 72.15 153.3 59.4 153.3 41.83C153.3 24.26 140.78 11.41 123.79 11.41C106.8 11.41 94.1697 24.16 94.1697 41.83C94.1697 59.5 106.69 72.15 123.79 72.15Z" fill="#121E3D"/>
<path d="M78.27 38.75C78.27 20.02 63.46 3.46998 41.57 3.46998C41.42 3.46998 41.28 3.46998 41.14 3.46998C41 3.46998 40.85 3.46998 40.7 3.46998C18.8 3.45998 4 20.01 4 38.75C4 39.17 4 39.59 4.02 40C4.01 40.42 4 40.83 4 41.25C4 57.4 14.49 69.27 32.63 79.44C33.7 80.04 34.79 80.63 35.91 81.22L41.14 83.95L60.96 94.29V85.35L49.64 79.45L41.14 75.01L39.58 74.19C35.52 72.06 31.93 69.92 28.8 67.76C18.64 60.72 13.31 53.36 12.17 44.87C12.03 43.69 11.95 42.48 11.95 41.25C11.95 40.91 11.95 40.56 11.97 40.23V40.21C12.01 38.95 12.11 37.7 12.28 36.49C12.32 36.18 12.37 35.88 12.43 35.57C12.44 35.48 12.45 35.39 12.47 35.31C13.54 29.53 16.15 24.29 20.11 20.15C25.5 14.51 32.78 11.48 41.15 11.38C49.53 11.48 56.79 14.51 62.19 20.15C66.14 24.28 68.76 29.53 69.83 35.31C69.85 35.4 69.86 35.49 69.87 35.57C69.92 35.88 69.97 36.18 70.02 36.49C70.19 37.72 70.29 38.98 70.32 40.26C70.33 40.59 70.34 40.92 70.34 41.25C70.34 42.48 70.27 43.69 70.13 44.87C68.98 53.35 63.66 60.71 53.49 67.76C51.97 68.82 50.33 69.87 48.59 70.91H62.46C72.63 62.65 78.29 53.1 78.29 41.25C78.29 40.83 78.29 40.41 78.27 40C78.28 39.59 78.29 39.17 78.29 38.75H78.27Z" fill="#121E3D"/>
<path d="M169.2 3.45996H194.85C209.2 3.45996 218.35 12.91 218.35 25.72C218.35 36.74 210.78 45.85 198.91 46.63L221.17 79.58H211.57L185.36 40.34H194.06C205.02 40.34 210.44 33.37 210.44 25.72C210.44 17.62 204.79 11.41 194.4 11.41H177.11V79.58H169.2V3.45996Z" fill="#121E3D"/>
<path d="M234.25 4.68996C234.23 13.03 240.98 16.33 252.82 26.75C263.75 36.24 269.29 43.02 269.29 53.69C269.29 61.6 265.87 68.6 259.66 73.38C254.42 77.42 247.54 79.64 240.3 79.64L231.3 79.56L226.28 72.16H239.79C250.58 72.16 261.38 65.75 261.38 53.61C261.38 46.75 258.57 41.92 247.44 32.25C235.3 21.57 226.28 16.02 226.28 3.45996H234.27L234.25 4.68996Z" fill="#121E3D"/>
</g>
</g>
<defs>
<filter id="filter0_d_6347_2819" x="285.517" y="0.970703" width="105.283" height="88.9192" filterUnits="userSpaceOnUse" color-interpolation-filters="sRGB">
<feFlood flood-opacity="0" result="BackgroundImageFix"/>
<feColorMatrix in="SourceAlpha" type="matrix" values="0 0 0 0 0 0 0 0 0 0 0 0 0 0 0 0 0 0 127 0" result="hardAlpha"/>
<feOffset dy="4"/>
<feGaussianBlur stdDeviation="2"/>
<feComposite in2="hardAlpha" operator="out"/>
<feColorMatrix type="matrix" values="0 0 0 0 0 0 0 0 0 0 0 0 0 0 0 0 0 0 0.25 0"/>
<feBlend mode="normal" in2="BackgroundImageFix" result="effect1_dropShadow_6347_2819"/>
<feBlend mode="normal" in="SourceGraphic" in2="effect1_dropShadow_6347_2819" result="shape"/>
</filter>
<filter id="filter1_d_6347_2819" x="0" y="3.45996" width="273.29" height="98.8301" filterUnits="userSpaceOnUse" color-interpolation-filters="sRGB">
<feFlood flood-opacity="0" result="BackgroundImageFix"/>
<feColorMatrix in="SourceAlpha" type="matrix" values="0 0 0 0 0 0 0 0 0 0 0 0 0 0 0 0 0 0 127 0" result="hardAlpha"/>
<feOffset dy="4"/>
<feGaussianBlur stdDeviation="2"/>
<feComposite in2="hardAlpha" operator="out"/>
<feColorMatrix type="matrix" values="0 0 0 0 0 0 0 0 0 0 0 0 0 0 0 0 0 0 0.25 0"/>
<feBlend mode="normal" in2="BackgroundImageFix" result="effect1_dropShadow_6347_2819"/>
<feBlend mode="normal" in="SourceGraphic" in2="effect1_dropShadow_6347_2819" result="shape"/>
</filter>
<clipPath id="clip0_6347_2819">
<rect width="390.8" height="95.26" fill="white"/>
</clipPath>
</defs>
</svg>
