<?xml version="1.0" encoding="UTF-8"?>
<svg id="Modo_de_aislamiento" data-name="Modo de aislamiento" xmlns="http://www.w3.org/2000/svg" version="1.1" viewBox="0 0 390.8 95.26">
  <defs>
    <style>
      .cls-1 {
        fill: #be0d30;
      }

      .cls-1, .cls-2 {
        stroke-width: 0px;
      }

      .cls-2 {
        fill: #121e3d;
      }
    </style>
  </defs>
  <path class="cls-1" d="M386.8,81.88c-5.37-5.59-12.77-9.02-20.46-9.78-5.13-.62-10.33.29-15.14,2.1-4.81,1.84-9.17,4.72-14.13,6.17-7.42,2.17-15.5,1.72-22.78-.77-25.97-8.39-32.04-44.65-15.75-64.6,12-15.51,36.42-18.62,52.13-7.02,7.28,5.32,12.27,13.6,13.73,22.49.42,2.54.57,5.12.44,7.69-.49-2.6-1.13-5.08-2.03-7.42-4.43-11.82-14.29-20.25-26.9-21.69-10.33-1.24-21.5,2.4-28.25,10.49-9.86,11.84-10.29,30.58-1.26,43,6.45,8.98,19.67,12.76,30.23,10.29.22-.02.95-.29,1.18-.35.52-.16,1.07-.32,1.58-.49,3.02-1.09,6.59-2.52,9.68-3.38,4.39-1.15,8.82-1.71,13.38-1.26,9.68,1.06,19.23,6.16,24.34,14.54h0Z"/>
  <g>
    <path class="cls-2" d="M53.6,81.52"/>
    <path class="cls-2" d="M86.22,41.58c0-20.91,15.14-38.12,37.57-38.12s37.46,16.88,37.46,38.12-15.14,38.01-37.46,38.01-37.57-16.99-37.57-38.01ZM123.79,72.15c16.99,0,29.51-12.86,29.51-30.57s-12.52-30.68-29.51-30.68-29.62,12.86-29.62,30.68,12.52,30.57,29.62,30.57Z"/>
    <path class="cls-2" d="M78.27,38.75c0-18.73-14.81-35.28-36.7-35.28-.15,0-.29,0-.43,0-.14,0-.29,0-.44,0C18.8,3.46,4,20.01,4,38.75c0,.42,0,.84.02,1.25-.01.42-.02.83-.02,1.25,0,16.15,10.49,28.02,28.63,38.19,1.07.6,2.16,1.19,3.28,1.78l5.23,2.73,19.82,10.34v-8.94l-11.32-5.9-8.5-4.44-1.56-.82c-4.06-2.13-7.65-4.27-10.78-6.43-10.16-7.04-15.49-14.4-16.63-22.89-.14-1.18-.22-2.39-.22-3.62,0-.34,0-.69.02-1.02v-.02c.04-1.26.14-2.51.31-3.72.04-.31.09-.61.15-.92.01-.09.02-.18.04-.26,1.07-5.78,3.68-11.02,7.64-15.16,5.39-5.64,12.67-8.67,21.04-8.77,8.38.1,15.64,3.13,21.04,8.77,3.95,4.13,6.57,9.38,7.64,15.16.02.09.03.18.04.26.05.31.1.61.15.92.17,1.23.27,2.49.3,3.77.01.33.02.66.02.99,0,1.23-.07,2.44-.21,3.62-1.15,8.48-6.47,15.84-16.64,22.89-1.52,1.06-3.16,2.11-4.9,3.15h13.87c10.17-8.26,15.83-17.81,15.83-29.66,0-.42,0-.84-.02-1.25.01-.41.02-.83.02-1.25Z"/>
    <path class="cls-2" d="M86.22,41.58c0-20.91,15.14-38.12,37.57-38.12s37.46,16.88,37.46,38.12-15.14,38.01-37.46,38.01-37.57-16.99-37.57-38.01ZM123.79,72.15c16.99,0,29.51-12.75,29.51-30.32s-12.52-30.42-29.51-30.42-29.62,12.75-29.62,30.42,12.52,30.32,29.62,30.32Z"/>
    <path class="cls-2" d="M78.27,38.75c0-18.73-14.81-35.28-36.7-35.28-.15,0-.29,0-.43,0-.14,0-.29,0-.44,0C18.8,3.46,4,20.01,4,38.75c0,.42,0,.84.02,1.25-.01.42-.02.83-.02,1.25,0,16.15,10.49,28.02,28.63,38.19,1.07.6,2.16,1.19,3.28,1.78l5.23,2.73,19.82,10.34v-8.94l-11.32-5.9-8.5-4.44-1.56-.82c-4.06-2.13-7.65-4.27-10.78-6.43-10.16-7.04-15.49-14.4-16.63-22.89-.14-1.18-.22-2.39-.22-3.62,0-.34,0-.69.02-1.02v-.02c.04-1.26.14-2.51.31-3.72.04-.31.09-.61.15-.92.01-.09.02-.18.04-.26,1.07-5.78,3.68-11.02,7.64-15.16,5.39-5.64,12.67-8.67,21.04-8.77,8.38.1,15.64,3.13,21.04,8.77,3.95,4.13,6.57,9.38,7.64,15.16.02.09.03.18.04.26.05.31.1.61.15.92.17,1.23.27,2.49.3,3.77.01.33.02.66.02.99,0,1.23-.07,2.44-.21,3.62-1.15,8.48-6.47,15.84-16.64,22.89-1.52,1.06-3.16,2.11-4.9,3.15h13.87c10.17-8.26,15.83-17.81,15.83-29.66,0-.42,0-.84-.02-1.25.01-.41.02-.83.02-1.25Z"/>
    <path class="cls-2" d="M169.2,3.46h25.65c14.35,0,23.5,9.45,23.5,22.26,0,11.02-7.57,20.13-19.44,20.91l22.26,32.95h-9.6l-26.21-39.24h8.7c10.96,0,16.38-6.97,16.38-14.62,0-8.1-5.65-14.31-16.04-14.31h-17.29v68.17h-7.91V3.46Z"/>
    <path class="cls-2" d="M234.25,4.69c-.02,8.34,6.73,11.64,18.57,22.06,10.93,9.49,16.47,16.27,16.47,26.94,0,7.91-3.42,14.91-9.63,19.69-5.24,4.04-12.12,6.26-19.36,6.26l-9-.08-5.02-7.4h13.51c10.79,0,21.59-6.41,21.59-18.55,0-6.86-2.81-11.69-13.94-21.36-12.14-10.68-21.16-16.23-21.16-28.79h7.99l-.02,1.23Z"/>
  </g>
</svg>