<?xml version="1.0" encoding="utf-8"?>
<!-- Generator: Adobe Illustrator 28.3.0, SVG Export Plug-In . SVG Version: 6.00 Build 0)  -->
<svg version="1.1" id="Capa_1" xmlns="http://www.w3.org/2000/svg" xmlns:xlink="http://www.w3.org/1999/xlink" x="0px" y="0px"
	 viewBox="0 0 179.72 270.87" style="enable-background:new 0 0 179.72 270.87;" xml:space="preserve">
<style type="text/css">
	.st0{fill:#FDC82E;}
</style>
<g>
	<path class="st0" d="M11.88,84.78c0.69,7.41,2.69,14.42,5.76,20.83c0.02,0.03,0.03,0.06,0.05,0.1c1.54,3.33,3.38,6.54,5.51,9.56
		l55.76,78.9h36.31L47.31,98.01v-0.29c-3.82-5.25-6.09-11.7-6.09-18.68c0-17.08,13.43-31.05,30.28-31.9h88.48l8.11-29.64H73.15
		c-33.99,0-61.54,27.54-61.54,61.54C11.61,80.98,11.7,82.89,11.88,84.78"/>
	<path class="st0" d="M167.85,186.09c-0.69-7.41-2.69-14.42-5.76-20.83c-0.02-0.03-0.03-0.06-0.05-0.1
		c-1.54-3.33-3.38-6.54-5.51-9.56l-55.76-78.9H64.45l67.96,96.16v0.29c3.82,5.25,6.09,11.7,6.09,18.68
		c0,17.08-13.43,31.05-30.28,31.9H19.72l-8.11,29.64h94.96c33.99,0,61.54-27.54,61.54-61.54
		C168.11,189.89,168.02,187.98,167.85,186.09"/>
</g>
</svg>
