<?xml version="1.0" encoding="utf-8"?>
<!-- Generator: Adobe Illustrator 28.3.0, SVG Export Plug-In . SVG Version: 6.00 Build 0)  -->
<svg version="1.1" id="Capa_1" xmlns="http://www.w3.org/2000/svg" xmlns:xlink="http://www.w3.org/1999/xlink" x="0px" y="0px"
	 viewBox="0 0 285.67 76.77" style="enable-background:new 0 0 285.67 76.77;" xml:space="preserve">
<style type="text/css">
	.st0{fill:#FDC82E;}
</style>
<g>
	<path class="st0" d="M8.37,31.17l0.01,0.02c0.34,0.75,0.76,1.47,1.24,2.15l12.56,17.78h8.18L15.05,29.45v-0.07
		c-0.86-1.18-1.37-2.64-1.37-4.21c0-3.85,3.02-6.99,6.82-7.19h19.93l1.83-6.68H20.87c-7.66,0-13.86,6.21-13.86,13.87
		c0,0.44,0.02,0.87,0.06,1.29C7.22,28.14,7.67,29.72,8.37,31.17z"/>
	<path class="st0" d="M40.91,44.6c0-0.01-0.01-0.02-0.01-0.02c-0.35-0.75-0.76-1.47-1.24-2.15L27.1,24.65h-8.18l15.31,21.67v0.07
		c0.86,1.18,1.37,2.64,1.37,4.21c0,3.85-3.03,6.99-6.82,7.19H8.84l-1.83,6.68h21.4c7.66,0,13.86-6.21,13.86-13.87
		c0-0.44-0.02-0.87-0.06-1.29C42.06,47.63,41.6,46.05,40.91,44.6z"/>
	<path class="st0" d="M78.57,35.93h-3.32c-0.48,0-0.8-0.08-0.97-0.25c-0.17-0.17-0.25-0.46-0.25-0.88v-5.34
		c0-0.45,0.08-0.75,0.25-0.91c0.17-0.15,0.49-0.23,0.97-0.23h1.6c0.48,0,0.79,0.08,0.95,0.23c0.15,0.16,0.23,0.46,0.23,0.91v3.03
		h4.88v-3.7c0-1.32-0.36-2.34-1.07-3.07c-0.71-0.73-1.87-1.09-3.47-1.09h-4.62c-1.63,0-2.79,0.36-3.49,1.09
		c-0.7,0.73-1.05,1.75-1.05,3.07v6.52c0,1.32,0.33,2.35,0.99,3.09c0.66,0.74,1.77,1.11,3.34,1.11h3.41c0.45,0,0.76,0.08,0.93,0.23
		c0.17,0.15,0.25,0.46,0.25,0.9v5.68c0,0.42-0.08,0.72-0.25,0.88c-0.17,0.17-0.48,0.25-0.93,0.25h-1.6c-0.48,0-0.8-0.08-0.97-0.25
		c-0.17-0.17-0.25-0.46-0.25-0.88v-2.99h-4.83v3.66c0,1.32,0.36,2.34,1.07,3.07c0.72,0.73,1.89,1.09,3.51,1.09h4.54
		c1.63,0,2.8-0.36,3.51-1.09c0.71-0.73,1.07-1.75,1.07-3.07v-6.94c0-1.32-0.34-2.33-1.01-3.05C81.3,36.29,80.17,35.93,78.57,35.93z"
		/>
	<path class="st0" d="M106.59,24.62h-2.27h-0.59h-2.27c-1.6,0-2.76,0.36-3.49,1.09c-0.73,0.73-1.09,1.75-1.09,3.07v10.51v1.64v6.06
		c0,1.32,0.36,2.34,1.09,3.07c0.73,0.73,1.89,1.09,3.49,1.09h2.1h0.71h2.31c1.63,0,2.8-0.36,3.51-1.09
		c0.72-0.73,1.07-1.75,1.07-3.07v-6.06V39.5V28.78c0-1.32-0.36-2.34-1.07-3.07C109.38,24.98,108.21,24.62,106.59,24.62z
		 M106.34,40.93v5.38c0,0.42-0.08,0.72-0.23,0.88c-0.15,0.17-0.47,0.25-0.95,0.25h-0.88h-0.71h-0.63c-0.48,0-0.8-0.08-0.97-0.25
		c-0.17-0.17-0.25-0.46-0.25-0.88v-5.38v-1.64v-9.84c0-0.45,0.08-0.75,0.25-0.91c0.17-0.15,0.49-0.23,0.97-0.23h0.8h0.59h0.84
		c0.48,0,0.79,0.08,0.95,0.23c0.15,0.16,0.23,0.46,0.23,0.91V39.5V40.93z"/>
	<polygon class="st0" points="129.9,24.62 125.06,24.62 125.06,51.15 129.9,51.15 129.9,51.15 136.96,51.15 136.96,47.45 
		129.9,47.45 	"/>
	<path class="st0" d="M160.23,35.93h-3.32c-0.48,0-0.8-0.08-0.97-0.25c-0.17-0.17-0.25-0.46-0.25-0.88v-5.34
		c0-0.45,0.08-0.75,0.25-0.91c0.17-0.15,0.49-0.23,0.97-0.23h1.6c0.48,0,0.79,0.08,0.95,0.23c0.15,0.16,0.23,0.46,0.23,0.91v3.03
		h4.88v-3.7c0-1.32-0.36-2.34-1.07-3.07c-0.71-0.73-1.87-1.09-3.47-1.09h-4.62c-1.63,0-2.79,0.36-3.49,1.09
		c-0.7,0.73-1.05,1.75-1.05,3.07v6.52c0,1.32,0.33,2.35,0.99,3.09c0.66,0.74,1.77,1.11,3.34,1.11h3.41c0.45,0,0.76,0.08,0.93,0.23
		c0.17,0.15,0.25,0.46,0.25,0.9v5.68c0,0.42-0.08,0.72-0.25,0.88c-0.17,0.17-0.48,0.25-0.93,0.25h-1.6c-0.48,0-0.8-0.08-0.97-0.25
		c-0.17-0.17-0.25-0.46-0.25-0.88v-2.99h-4.83v3.66c0,1.32,0.36,2.34,1.07,3.07c0.72,0.73,1.89,1.09,3.51,1.09h4.54
		c1.63,0,2.8-0.36,3.51-1.09c0.71-0.73,1.07-1.75,1.07-3.07v-6.94c0-1.32-0.34-2.33-1.01-3.05
		C162.96,36.29,161.83,35.93,160.23,35.93z"/>
	<path class="st0" d="M188.29,24.62h-4.92h-3.74h-1.09v26.53h4.84V41.4h4.92c1.63,0,2.8-0.36,3.51-1.09s1.07-1.75,1.07-3.07v-8.45
		c0-1.32-0.36-2.34-1.07-3.07S189.92,24.62,188.29,24.62z M188.04,36.56c0,0.42-0.08,0.72-0.23,0.88c-0.15,0.17-0.47,0.25-0.95,0.25
		h-3.49v-9.38h3.49c0.48,0,0.79,0.08,0.95,0.23c0.15,0.15,0.23,0.46,0.23,0.9V36.56z"/>
	<path class="st0" d="M216.48,24.62h-2.27h-0.59h-2.27c-1.6,0-2.76,0.36-3.49,1.09c-0.73,0.73-1.09,1.75-1.09,3.07v10.51v1.64v6.06
		c0,1.32,0.36,2.34,1.09,3.07c0.73,0.73,1.89,1.09,3.49,1.09h2.1h0.71h2.31c1.62,0,2.8-0.36,3.51-1.09
		c0.72-0.73,1.07-1.75,1.07-3.07v-6.06V39.5V28.78c0-1.32-0.36-2.34-1.07-3.07C219.27,24.98,218.1,24.62,216.48,24.62z
		 M216.22,40.93v5.38c0,0.42-0.08,0.72-0.23,0.88c-0.16,0.17-0.47,0.25-0.95,0.25h-0.88h-0.71h-0.63c-0.48,0-0.8-0.08-0.97-0.25
		c-0.17-0.17-0.25-0.46-0.25-0.88v-5.38v-1.64v-9.84c0-0.45,0.08-0.75,0.25-0.91c0.17-0.15,0.49-0.23,0.97-0.23h0.8h0.59h0.84
		c0.48,0,0.79,0.08,0.95,0.23c0.15,0.16,0.23,0.46,0.23,0.91V39.5V40.93z"/>
	<path class="st0" d="M248.22,39.71c0.71-0.73,1.07-1.75,1.07-3.07v-7.86c0-1.32-0.36-2.34-1.07-3.07
		c-0.71-0.73-1.89-1.09-3.51-1.09h-4.92h-3.74h-1.09v26.53h4.84V40.81h1.58l4.05,10.34h5.21l-4.43-10.49
		C247.06,40.5,247.75,40.19,248.22,39.71z M239.79,28.32h3.49c0.48,0,0.79,0.08,0.95,0.23s0.23,0.46,0.23,0.9v6.64
		c0,0.42-0.08,0.71-0.23,0.88c-0.15,0.17-0.47,0.25-0.95,0.25h-3.49V28.32z"/>
	<polygon class="st0" points="278.66,24.62 264.53,24.62 264.53,28.32 269.16,28.32 269.16,51.15 274,51.15 274,28.32 278.66,28.32 
			"/>
	<rect x="55.48" y="4.64" class="st0" width="0.52" height="67.49"/>
</g>
</svg>
