<svg width="200" height="200" viewBox="0 0 200 200" fill="none" xmlns="http://www.w3.org/2000/svg">
<mask id="path-1-inside-1_4_302" fill="white">
<path d="M0.103879 95.4428C-0.868032 116.747 4.99667 137.805 16.8415 155.54C28.6864 173.275 45.891 186.759 65.9428 194.022C85.9946 201.285 107.843 201.948 128.298 195.912C148.753 189.877 166.743 177.461 179.641 160.476C192.538 143.491 199.668 122.828 199.989 101.503C200.309 80.1789 193.804 59.3105 181.423 41.9456C169.042 24.5807 151.433 11.6289 131.169 4.98159C110.904 -1.66573 89.0457 -1.66037 68.7845 4.99689L81.7741 44.5302C93.604 40.6432 106.367 40.64 118.199 44.5212C130.031 48.4024 140.312 55.9646 147.541 66.1035C154.77 76.2425 158.568 88.427 158.381 100.878C158.194 113.328 154.031 125.393 146.5 135.31C138.97 145.227 128.466 152.477 116.523 156.001C104.58 159.525 91.8226 159.138 80.1149 154.897C68.4071 150.656 58.3618 142.783 51.4459 132.428C44.53 122.073 41.1058 109.778 41.6732 97.3392L0.103879 95.4428Z"/>
</mask>
<path d="M0.103879 95.4428C-0.868032 116.747 4.99667 137.805 16.8415 155.54C28.6864 173.275 45.891 186.759 65.9428 194.022C85.9946 201.285 107.843 201.948 128.298 195.912C148.753 189.877 166.743 177.461 179.641 160.476C192.538 143.491 199.668 122.828 199.989 101.503C200.309 80.1789 193.804 59.3105 181.423 41.9456C169.042 24.5807 151.433 11.6289 131.169 4.98159C110.904 -1.66573 89.0457 -1.66037 68.7845 4.99689L81.7741 44.5302C93.604 40.6432 106.367 40.64 118.199 44.5212C130.031 48.4024 140.312 55.9646 147.541 66.1035C154.77 76.2425 158.568 88.427 158.381 100.878C158.194 113.328 154.031 125.393 146.5 135.31C138.97 145.227 128.466 152.477 116.523 156.001C104.58 159.525 91.8226 159.138 80.1149 154.897C68.4071 150.656 58.3618 142.783 51.4459 132.428C44.53 122.073 41.1058 109.778 41.6732 97.3392L0.103879 95.4428Z" stroke="#FEC82F" stroke-width="78" mask="url(#path-1-inside-1_4_302)"/>
</svg>
