<?xml version="1.0" encoding="utf-8"?>
<!-- Generator: Adobe Illustrator 28.3.0, SVG Export Plug-In . SVG Version: 6.00 Build 0)  -->
<svg version="1.1" id="Capa_1" xmlns="http://www.w3.org/2000/svg" xmlns:xlink="http://www.w3.org/1999/xlink" x="0px" y="0px"
	 viewBox="0 0 300.61 224.78" style="enable-background:new 0 0 300.61 224.78;" xml:space="preserve">
<g>
	<path d="M106.03,63.28c0.01,0.02,0.02,0.04,0.03,0.06c0.94,2.04,2.07,4.01,3.38,5.86l34.18,48.36h22.26l-41.66-58.94v-0.18
		c-2.34-3.22-3.73-7.17-3.73-11.45c0-10.47,8.23-19.03,18.56-19.55h54.23l4.97-18.17h-58.19c-20.83,0-37.72,16.88-37.72,37.72
		c0,1.19,0.05,2.36,0.16,3.52C102.92,55.05,104.15,59.35,106.03,63.28z"/>
	<path d="M198.11,112.6c-0.42-4.54-1.65-8.84-3.53-12.77c-0.01-0.02-0.02-0.04-0.03-0.06c-0.94-2.04-2.07-4.01-3.38-5.86
		l-34.18-48.36h-22.26l41.66,58.94v0.18c2.34,3.22,3.73,7.17,3.73,11.45c0,10.47-8.23,19.03-18.56,19.55h-54.24l-4.97,18.17h58.21
		c20.83,0,37.72-16.88,37.72-37.72C198.27,114.93,198.22,113.76,198.11,112.6z"/>
	<path d="M24.74,195.47h-4.37c-0.63,0-1.05-0.11-1.27-0.33c-0.22-0.22-0.33-0.61-0.33-1.16v-7.03c0-0.59,0.11-0.99,0.33-1.19
		c0.22-0.2,0.65-0.3,1.27-0.3h2.1c0.63,0,1.04,0.1,1.25,0.3c0.2,0.2,0.3,0.6,0.3,1.19v3.99h6.42v-4.87c0-1.74-0.47-3.08-1.41-4.04
		c-0.94-0.96-2.46-1.44-4.57-1.44h-6.09c-2.14,0-3.67,0.48-4.6,1.44c-0.92,0.96-1.38,2.31-1.38,4.04v8.58c0,1.73,0.43,3.09,1.3,4.07
		c0.87,0.98,2.33,1.47,4.4,1.47h4.48c0.59,0,1,0.1,1.22,0.3c0.22,0.2,0.33,0.6,0.33,1.19v7.47c0,0.55-0.11,0.94-0.33,1.16
		c-0.22,0.22-0.63,0.33-1.22,0.33h-2.1c-0.63,0-1.05-0.11-1.27-0.33c-0.22-0.22-0.33-0.61-0.33-1.16v-3.93H12.5v4.82
		c0,1.74,0.47,3.08,1.41,4.04c0.94,0.96,2.48,1.44,4.62,1.44h5.98c2.14,0,3.68-0.48,4.62-1.44c0.94-0.96,1.41-2.31,1.41-4.04v-9.14
		c0-1.73-0.44-3.07-1.33-4.01C28.34,195.94,26.84,195.47,24.74,195.47z"/>
	<path d="M61.63,180.57h-2.99h-0.78h-2.99c-2.1,0-3.64,0.48-4.59,1.44c-0.96,0.96-1.44,2.31-1.44,4.04v13.84v2.16v7.97
		c0,1.74,0.48,3.08,1.44,4.04c0.96,0.96,2.49,1.44,4.59,1.44h2.77h0.94h3.04c2.14,0,3.68-0.48,4.62-1.44
		c0.94-0.96,1.41-2.31,1.41-4.04v-7.97v-1.88v-14.12c0-1.73-0.47-3.08-1.41-4.04C65.32,181.05,63.78,180.57,61.63,180.57z
		 M61.3,202.05v7.09c0,0.55-0.1,0.94-0.3,1.16c-0.2,0.22-0.62,0.33-1.24,0.33h-1.16h-0.94h-0.83c-0.63,0-1.05-0.11-1.27-0.33
		c-0.22-0.22-0.33-0.61-0.33-1.16v-7.09v-2.16v-12.96c0-0.59,0.11-0.99,0.33-1.19c0.22-0.2,0.64-0.3,1.27-0.3h1.05h0.78h1.11
		c0.63,0,1.04,0.1,1.24,0.3c0.2,0.2,0.3,0.6,0.3,1.19v13.23V202.05z"/>
	<polygon points="92.33,180.57 85.96,180.57 85.96,215.51 88.67,215.51 92.33,215.51 101.63,215.51 101.63,210.64 92.33,210.64 	"/>
	<path d="M132.27,195.47h-4.37c-0.63,0-1.05-0.11-1.27-0.33c-0.22-0.22-0.33-0.61-0.33-1.16v-7.03c0-0.59,0.11-0.99,0.33-1.19
		c0.22-0.2,0.65-0.3,1.27-0.3h2.1c0.63,0,1.04,0.1,1.25,0.3c0.2,0.2,0.3,0.6,0.3,1.19v3.99h6.42v-4.87c0-1.74-0.47-3.08-1.41-4.04
		c-0.94-0.96-2.46-1.44-4.57-1.44h-6.09c-2.14,0-3.67,0.48-4.6,1.44c-0.92,0.96-1.38,2.31-1.38,4.04v8.58c0,1.73,0.43,3.09,1.3,4.07
		c0.87,0.98,2.33,1.47,4.4,1.47h4.48c0.59,0,1,0.1,1.22,0.3c0.22,0.2,0.33,0.6,0.33,1.19v7.47c0,0.55-0.11,0.94-0.33,1.16
		c-0.22,0.22-0.63,0.33-1.22,0.33H128c-0.63,0-1.05-0.11-1.27-0.33c-0.22-0.22-0.33-0.61-0.33-1.16v-3.93h-6.37v4.82
		c0,1.74,0.47,3.08,1.41,4.04c0.94,0.96,2.48,1.44,4.62,1.44h5.98c2.14,0,3.68-0.48,4.62-1.44c0.94-0.96,1.41-2.31,1.41-4.04v-9.14
		c0-1.73-0.44-3.07-1.33-4.01C135.86,195.94,134.37,195.47,132.27,195.47z"/>
	<path d="M169.21,180.57h-6.48h-4.93h-1.44v34.94h6.37v-12.84h6.48c2.14,0,3.68-0.48,4.62-1.44c0.94-0.96,1.41-2.31,1.41-4.04
		v-11.13c0-1.73-0.47-3.08-1.41-4.04C172.9,181.05,171.36,180.57,169.21,180.57z M168.88,196.3c0,0.55-0.1,0.94-0.31,1.16
		c-0.2,0.22-0.62,0.33-1.25,0.33h-4.59v-12.35h4.59c0.63,0,1.04,0.1,1.25,0.3s0.31,0.6,0.31,1.19V196.3z"/>
	<path d="M206.33,180.57h-2.99h-0.78h-2.99c-2.1,0-3.64,0.48-4.6,1.44c-0.96,0.96-1.44,2.31-1.44,4.04v13.84v2.16v7.97
		c0,1.74,0.48,3.08,1.44,4.04c0.96,0.96,2.49,1.44,4.6,1.44h2.77h0.94h3.05c2.14,0,3.68-0.48,4.62-1.44
		c0.94-0.96,1.41-2.31,1.41-4.04v-7.97v-1.88v-14.12c0-1.73-0.47-3.08-1.41-4.04C210.01,181.05,208.47,180.57,206.33,180.57z
		 M206,202.05v7.09c0,0.55-0.1,0.94-0.3,1.16c-0.2,0.22-0.62,0.33-1.25,0.33h-1.16h-0.94h-0.83c-0.63,0-1.05-0.11-1.27-0.33
		c-0.22-0.22-0.33-0.61-0.33-1.16v-7.09v-2.16v-12.96c0-0.59,0.11-0.99,0.33-1.19c0.22-0.2,0.65-0.3,1.27-0.3h1.05h0.78h1.11
		c0.63,0,1.04,0.1,1.25,0.3c0.2,0.2,0.3,0.6,0.3,1.19v13.23V202.05z"/>
	<path d="M248.12,200.45c0.94-0.96,1.41-2.31,1.41-4.04v-10.35c0-1.73-0.47-3.08-1.41-4.04c-0.94-0.96-2.48-1.44-4.62-1.44h-6.48
		h-4.93h-1.44v34.94h6.37v-13.62h2.08l5.34,13.62h6.86l-5.84-13.81C246.6,201.48,247.51,201.08,248.12,200.45z M237.02,185.44h4.59
		c0.63,0,1.04,0.1,1.25,0.3c0.2,0.2,0.3,0.6,0.3,1.19v8.75c0,0.55-0.1,0.94-0.3,1.16c-0.2,0.22-0.62,0.33-1.25,0.33h-4.59V185.44z"
		/>
	<polygon points="288.21,180.57 269.61,180.57 269.61,185.44 275.7,185.44 275.7,215.51 282.07,215.51 282.07,185.44 288.21,185.44 
			"/>
</g>
</svg>
